
                <svg id="trend-chart" width="660" height="400" title="Stack Overflow Trends Chart" version="1.1" xmlns="http://www.w3.org/2000/svg"><g></g><g class="chart-area" transform="translate(100, 20)"><g transform="translate(0,300)" fill="none" font-size="10" font-family="sans-serif" text-anchor="middle"><path class="domain" stroke="#000" d="M0.5,6V0.5H410.5V6"></path><g class="tick" opacity="1" transform="translate(19.8253027909426,0)"><line stroke="#000" y2="6" x1="0.5" x2="0.5"></line><text fill="#000" y="9" x="0.5" dy="0.71em" style="font-size: 12px;">2009</text></g><g class="tick" opacity="1" transform="translate(67.1080832016851,0)"><line stroke="#000" y2="6" x1="0.5" x2="0.5"></line><text fill="#000" y="9" x="0.5" dy="0.71em" style="font-size: 12px;">2010</text></g><g class="tick" opacity="1" transform="translate(114.39086361242761,0)"><line stroke="#000" y2="6" x1="0.5" x2="0.5"></line><text fill="#000" y="9" x="0.5" dy="0.71em" style="font-size: 12px;">2011</text></g><g class="tick" opacity="1" transform="translate(161.6736440231701,0)"><line stroke="#000" y2="6" x1="0.5" x2="0.5"></line><text fill="#000" y="9" x="0.5" dy="0.71em" style="font-size: 12px;">2012</text></g><g class="tick" opacity="1" transform="translate(209.08596629805163,0)"><line stroke="#000" y2="6" x1="0.5" x2="0.5"></line><text fill="#000" y="9" x="0.5" dy="0.71em" style="font-size: 12px;">2013</text></g><g class="tick" opacity="1" transform="translate(256.3687467087941,0)"><line stroke="#000" y2="6" x1="0.5" x2="0.5"></line><text fill="#000" y="9" x="0.5" dy="0.71em" style="font-size: 12px;">2014</text></g><g class="tick" opacity="1" transform="translate(303.6515271195366,0)"><line stroke="#000" y2="6" x1="0.5" x2="0.5"></line><text fill="#000" y="9" x="0.5" dy="0.71em" style="font-size: 12px;">2015</text></g><g class="tick" opacity="1" transform="translate(350.93430753027906,0)"><line stroke="#000" y2="6" x1="0.5" x2="0.5"></line><text fill="#000" y="9" x="0.5" dy="0.71em" style="font-size: 12px;">2016</text></g><g class="tick" opacity="1" transform="translate(398.3466298051606,0)"><line stroke="#000" y2="6" x1="0.5" x2="0.5"></line><text fill="#000" y="9" x="0.5" dy="0.71em" style="font-size: 12px;">2017</text></g></g><g class="grid-lines" transform="translate(0,300)" fill="none" font-size="10" font-family="sans-serif" text-anchor="middle"><path class="domain" stroke="#000" d="M0.5,-300V0.5H410.5V-300"></path><g class="tick" opacity="1" transform="translate(19.8253027909426,0)"><line stroke="#000" y2="-300" x1="0.5" x2="0.5" style="stroke: #ccc; fill: none;"></line></g><g class="tick" opacity="1" transform="translate(67.1080832016851,0)"><line stroke="#000" y2="-300" x1="0.5" x2="0.5" style="stroke: #ccc; fill: none;"></line></g><g class="tick" opacity="1" transform="translate(114.39086361242761,0)"><line stroke="#000" y2="-300" x1="0.5" x2="0.5" style="stroke: #ccc; fill: none;"></line></g><g class="tick" opacity="1" transform="translate(161.6736440231701,0)"><line stroke="#000" y2="-300" x1="0.5" x2="0.5" style="stroke: #ccc; fill: none;"></line></g><g class="tick" opacity="1" transform="translate(209.08596629805163,0)"><line stroke="#000" y2="-300" x1="0.5" x2="0.5" style="stroke: #ccc; fill: none;"></line></g><g class="tick" opacity="1" transform="translate(256.3687467087941,0)"><line stroke="#000" y2="-300" x1="0.5" x2="0.5" style="stroke: #ccc; fill: none;"></line></g><g class="tick" opacity="1" transform="translate(303.6515271195366,0)"><line stroke="#000" y2="-300" x1="0.5" x2="0.5" style="stroke: #ccc; fill: none;"></line></g><g class="tick" opacity="1" transform="translate(350.93430753027906,0)"><line stroke="#000" y2="-300" x1="0.5" x2="0.5" style="stroke: #ccc; fill: none;"></line></g><g class="tick" opacity="1" transform="translate(398.3466298051606,0)"><line stroke="#000" y2="-300" x1="0.5" x2="0.5" style="stroke: #ccc; fill: none;"></line></g></g><text x="205" y="360" class="axis-label x-axis-label" style="text-anchor: middle; font-weight: bold;">Year</text><g fill="none" font-size="10" font-family="sans-serif" text-anchor="end"><path class="domain" stroke="#000" d="M-6,300.5H0.5V0.5H-6"></path><g class="tick" opacity="1" transform="translate(0,300)"><line stroke="#000" x2="-6" y1="0.5" y2="0.5"></line><text fill="#000" x="-9" y="0.5" dy="0.32em" style="font-size: 12px;">0.00%</text></g><g class="tick" opacity="1" transform="translate(0,280)"><line stroke="#000" x2="-6" y1="0.5" y2="0.5"></line><text fill="#000" x="-9" y="0.5" dy="0.32em" style="font-size: 12px;">0.20%</text></g><g class="tick" opacity="1" transform="translate(0,260)"><line stroke="#000" x2="-6" y1="0.5" y2="0.5"></line><text fill="#000" x="-9" y="0.5" dy="0.32em" style="font-size: 12px;">0.40%</text></g><g class="tick" opacity="1" transform="translate(0,240)"><line stroke="#000" x2="-6" y1="0.5" y2="0.5"></line><text fill="#000" x="-9" y="0.5" dy="0.32em" style="font-size: 12px;">0.60%</text></g><g class="tick" opacity="1" transform="translate(0,220)"><line stroke="#000" x2="-6" y1="0.5" y2="0.5"></line><text fill="#000" x="-9" y="0.5" dy="0.32em" style="font-size: 12px;">0.80%</text></g><g class="tick" opacity="1" transform="translate(0,200)"><line stroke="#000" x2="-6" y1="0.5" y2="0.5"></line><text fill="#000" x="-9" y="0.5" dy="0.32em" style="font-size: 12px;">1.00%</text></g><g class="tick" opacity="1" transform="translate(0,180)"><line stroke="#000" x2="-6" y1="0.5" y2="0.5"></line><text fill="#000" x="-9" y="0.5" dy="0.32em" style="font-size: 12px;">1.20%</text></g><g class="tick" opacity="1" transform="translate(0,160)"><line stroke="#000" x2="-6" y1="0.5" y2="0.5"></line><text fill="#000" x="-9" y="0.5" dy="0.32em" style="font-size: 12px;">1.40%</text></g><g class="tick" opacity="1" transform="translate(0,140)"><line stroke="#000" x2="-6" y1="0.5" y2="0.5"></line><text fill="#000" x="-9" y="0.5" dy="0.32em" style="font-size: 12px;">1.60%</text></g><g class="tick" opacity="1" transform="translate(0,120)"><line stroke="#000" x2="-6" y1="0.5" y2="0.5"></line><text fill="#000" x="-9" y="0.5" dy="0.32em" style="font-size: 12px;">1.80%</text></g><g class="tick" opacity="1" transform="translate(0,99.99999999999997)"><line stroke="#000" x2="-6" y1="0.5" y2="0.5"></line><text fill="#000" x="-9" y="0.5" dy="0.32em" style="font-size: 12px;">2.00%</text></g><g class="tick" opacity="1" transform="translate(0,80.00000000000003)"><line stroke="#000" x2="-6" y1="0.5" y2="0.5"></line><text fill="#000" x="-9" y="0.5" dy="0.32em" style="font-size: 12px;">2.20%</text></g><g class="tick" opacity="1" transform="translate(0,60)"><line stroke="#000" x2="-6" y1="0.5" y2="0.5"></line><text fill="#000" x="-9" y="0.5" dy="0.32em" style="font-size: 12px;">2.40%</text></g><g class="tick" opacity="1" transform="translate(0,40)"><line stroke="#000" x2="-6" y1="0.5" y2="0.5"></line><text fill="#000" x="-9" y="0.5" dy="0.32em" style="font-size: 12px;">2.60%</text></g><g class="tick" opacity="1" transform="translate(0,20)"><line stroke="#000" x2="-6" y1="0.5" y2="0.5"></line><text fill="#000" x="-9" y="0.5" dy="0.32em" style="font-size: 12px;">2.80%</text></g><g class="tick" opacity="1" transform="translate(0,0)"><line stroke="#000" x2="-6" y1="0.5" y2="0.5"></line><text fill="#000" x="-9" y="0.5" dy="0.32em" style="font-size: 12px;">3.00%</text></g></g><g class="grid-lines" fill="none" font-size="10" font-family="sans-serif" text-anchor="end"><path class="domain" stroke="#000" d="M410,300.5H0.5V0.5H410"></path><g class="tick" opacity="1" transform="translate(0,300)"><line stroke="#000" x2="410" y1="0.5" y2="0.5" style="stroke: #ccc; fill: none;"></line></g><g class="tick" opacity="1" transform="translate(0,280)"><line stroke="#000" x2="410" y1="0.5" y2="0.5" style="stroke: #ccc; fill: none;"></line></g><g class="tick" opacity="1" transform="translate(0,260)"><line stroke="#000" x2="410" y1="0.5" y2="0.5" style="stroke: #ccc; fill: none;"></line></g><g class="tick" opacity="1" transform="translate(0,240)"><line stroke="#000" x2="410" y1="0.5" y2="0.5" style="stroke: #ccc; fill: none;"></line></g><g class="tick" opacity="1" transform="translate(0,220)"><line stroke="#000" x2="410" y1="0.5" y2="0.5" style="stroke: #ccc; fill: none;"></line></g><g class="tick" opacity="1" transform="translate(0,200)"><line stroke="#000" x2="410" y1="0.5" y2="0.5" style="stroke: #ccc; fill: none;"></line></g><g class="tick" opacity="1" transform="translate(0,180)"><line stroke="#000" x2="410" y1="0.5" y2="0.5" style="stroke: #ccc; fill: none;"></line></g><g class="tick" opacity="1" transform="translate(0,160)"><line stroke="#000" x2="410" y1="0.5" y2="0.5" style="stroke: #ccc; fill: none;"></line></g><g class="tick" opacity="1" transform="translate(0,140)"><line stroke="#000" x2="410" y1="0.5" y2="0.5" style="stroke: #ccc; fill: none;"></line></g><g class="tick" opacity="1" transform="translate(0,120)"><line stroke="#000" x2="410" y1="0.5" y2="0.5" style="stroke: #ccc; fill: none;"></line></g><g class="tick" opacity="1" transform="translate(0,99.99999999999997)"><line stroke="#000" x2="410" y1="0.5" y2="0.5" style="stroke: #ccc; fill: none;"></line></g><g class="tick" opacity="1" transform="translate(0,80.00000000000003)"><line stroke="#000" x2="410" y1="0.5" y2="0.5" style="stroke: #ccc; fill: none;"></line></g><g class="tick" opacity="1" transform="translate(0,60)"><line stroke="#000" x2="410" y1="0.5" y2="0.5" style="stroke: #ccc; fill: none;"></line></g><g class="tick" opacity="1" transform="translate(0,40)"><line stroke="#000" x2="410" y1="0.5" y2="0.5" style="stroke: #ccc; fill: none;"></line></g><g class="tick" opacity="1" transform="translate(0,20)"><line stroke="#000" x2="410" y1="0.5" y2="0.5" style="stroke: #ccc; fill: none;"></line></g><g class="tick" opacity="1" transform="translate(0,0)"><line stroke="#000" x2="410" y1="0.5" y2="0.5" style="stroke: #ccc; fill: none;"></line></g></g><g class="lines"><path class="line" d="M4.015797788309636,262.18L7.902053712480252,253.85999999999999L11.91785150078989,242.16L15.809505002632964,230.22L19.8253027909426,208.39L23.841100579252238,220.63L27.468272775144815,202.82L31.47867298578199,204.16999999999996L35.36492890995261,191.12L39.380726698262244,194.83999999999997L43.266982622432856,180.32999999999998L47.2827804107425,186.95999999999998L51.29857819905213,176.48999999999998L55.18483412322275,186.07L59.20063191153239,184.42000000000002L63.092285413375464,151.05999999999997L67.1080832016851,152.20999999999998L71.12388098999473,142.01L74.7510531858873,176.45999999999998L78.76145339652449,182.81L82.6477093206951,187.03L86.66350710900474,176.56L90.54976303317535,182.94L94.565560821485,183.54L98.58135860979462,183.2L102.46761453396525,193.61L106.48341232227489,182.63L110.37506582411797,187.98999999999998L114.39086361242761,183.95L118.40666140073722,178.92000000000002L122.03383359662979,188.11L126.04423380726698,192.48000000000002L129.9304897314376,180.32L133.94628751974724,183.71999999999997L137.83254344391784,190.38L141.84834123222748,198.25L145.86413902053712,201.26L149.75039494470775,206.65999999999997L153.7661927330174,199.21L157.65784623486047,204.26L161.6736440231701,196.39999999999998L165.68944181147972,204.88L169.4461558715113,199.37L173.4565560821485,196.35000000000002L177.34281200631912,199.57L181.35860979462876,202.95999999999998L185.24486571879936,198.04999999999998L189.260663507109,186.75L193.27646129541864,196.69L197.16271721958924,202.52999999999997L201.17851500789888,206.57999999999998L205.07016850974196,208.3L209.08596629805163,206.47L213.10176408636124,195.96L216.72893628225378,200.42L220.739336492891,201.78000000000003L224.6255924170616,197.02999999999997L228.64139020537124,192.44000000000003L232.5276461295419,197.31L236.5434439178515,190.13L240.55924170616112,206.45L244.44549763033177,207.32999999999998L248.46129541864138,201.39999999999998L252.35294892048447,208.16000000000003L256.3687467087941,200.02999999999997L260.3845444971037,209.68L264.0117166929963,200.54L268.0221169036335,207.81L271.9083728278041,205.11L275.9241706161137,196.91000000000003L279.81042654028437,199.87L283.826224328594,200.43L287.8420221169036,202.57L291.72827804107425,204.69L295.7440758293839,201.89999999999998L299.63572933122697,196.55L303.6515271195366,193.86L307.66732490784625,201.81L311.2944971037388,205.14L315.304897314376,208.87L319.19115323854663,198.01L323.20695102685625,195.37L327.09320695102684,189L331.1090047393365,194.63L335.1248025276461,192.07L339.0110584518167,195.45999999999998L343.0268562401264,199.04L346.91850974196944,189.52999999999997L350.93430753027906,189.23000000000002L354.9501053185887,194.36L358.70681937862037,194.29000000000002L362.7172195892575,200.1L366.6034755134281,197.86999999999998L370.6192733017378,201.68L374.5055292259084,195.99L378.521327014218,189.41L382.53712480252767,193.54000000000002L386.42338072669827,197.88L390.4391785150079,201.25L394.330832016851,201.06L398.3466298051606,193.07L402.3624275934703,181.94L405.98959978936284,188.7L410,192.05" data-legend="django" style="stroke: rgb(31, 119, 180); fill: none;"></path><path class="line" d="M4.015797788309636,300L7.902053712480252,300L11.91785150078989,300L15.809505002632964,300L19.8253027909426,300L23.841100579252238,300L27.468272775144815,300L31.47867298578199,300L35.36492890995261,300L39.380726698262244,300L43.266982622432856,300L47.2827804107425,300L51.29857819905213,300L55.18483412322275,300L59.20063191153239,300L63.092285413375464,300L67.1080832016851,300L71.12388098999473,300L74.7510531858873,300L78.76145339652449,300L82.6477093206951,300L86.66350710900474,300L90.54976303317535,300L94.565560821485,300L98.58135860979462,300L102.46761453396525,300L106.48341232227489,300L110.37506582411797,300L114.39086361242761,300L118.40666140073722,300L122.03383359662979,299.9L126.04423380726698,299.8L129.9304897314376,300L133.94628751974724,299.9L137.83254344391784,300L141.84834123222748,300L145.86413902053712,299.9L149.75039494470775,299.61L153.7661927330174,299.82L157.65784623486047,299.91L161.6736440231701,299.5L165.68944181147972,299.69L169.4461558715113,297.89L173.4565560821485,298.04L177.34281200631912,296.82L181.35860979462876,296.28L185.24486571879936,295.49L189.260663507109,293.94L193.27646129541864,293.14L197.16271721958924,293.3L201.17851500789888,292.08L205.07016850974196,291.05L209.08596629805163,290.37L213.10176408636124,288.21L216.72893628225378,290.29L220.739336492891,289.18L224.6255924170616,286.76L228.64139020537124,284.85L232.5276461295419,283.98L236.5434439178515,283.74L240.55924170616112,285.82L244.44549763033177,281.01L248.46129541864138,280.3L252.35294892048447,280.19L256.3687467087941,276.61L260.3845444971037,278.89L264.0117166929963,275.15L268.0221169036335,275.11L271.9083728278041,274.4L275.9241706161137,272.25L279.81042654028437,273.14L283.826224328594,271.3L287.8420221169036,271.15L291.72827804107425,272.35L295.7440758293839,269.8L299.63572933122697,273.75L303.6515271195366,271.54L307.66732490784625,268.76L311.2944971037388,265.16L315.304897314376,263.53L319.19115323854663,264.56L323.20695102685625,259.88L327.09320695102684,256.71L331.1090047393365,259.14L335.1248025276461,255.71L339.0110584518167,250.43L343.0268562401264,250.54L346.91850974196944,249.1L350.93430753027906,250.76L354.9501053185887,246.04L358.70681937862037,246.03L362.7172195892575,243.71L366.6034755134281,241.03L370.6192733017378,239.51L374.5055292259084,226.07L378.521327014218,232.17000000000002L382.53712480252767,232.39L386.42338072669827,232.14999999999998L390.4391785150079,224.43L394.330832016851,222.64L398.3466298051606,223.14L402.3624275934703,220.14L405.98959978936284,214.61L410,217.33999999999997" data-legend="pandas" style="stroke: rgb(255, 127, 14); fill: none;"></path><path class="line" d="M4.015797788309636,295.87L7.902053712480252,300L11.91785150078989,299.23L15.809505002632964,299.19L19.8253027909426,295.05L23.841100579252238,294.97L27.468272775144815,298.08L31.47867298578199,294.47L35.36492890995261,299.24L39.380726698262244,298.26L43.266982622432856,284.51L47.2827804107425,285.83L51.29857819905213,258.43L55.18483412322275,280.15L59.20063191153239,275.90999999999997L63.092285413375464,279.1L67.1080832016851,279.11L71.12388098999473,273.12L74.7510531858873,273.51L78.76145339652449,268.43L82.6477093206951,273.61L86.66350710900474,268.52L90.54976303317535,261.9L94.565560821485,256.16999999999996L98.58135860979462,262.19L102.46761453396525,266.8L106.48341232227489,265.53999999999996L110.37506582411797,268.36L114.39086361242761,269.14L118.40666140073722,261.93L122.03383359662979,258.95L126.04423380726698,251.13L129.9304897314376,258.29L133.94628751974724,256.11L137.83254344391784,255.92L141.84834123222748,246.48L145.86413902053712,241.35L149.75039494470775,239.92L153.7661927330174,245.39L157.65784623486047,241.95L161.6736440231701,241.81L165.68944181147972,236.01L169.4461558715113,234.89999999999998L173.4565560821485,235.5L177.34281200631912,236.16L181.35860979462876,227.22L185.24486571879936,222.8L189.260663507109,224.21999999999997L193.27646129541864,221.32999999999998L197.16271721958924,216.51999999999998L201.17851500789888,210.81L205.07016850974196,211.69L209.08596629805163,206.04L213.10176408636124,193.57L216.72893628225378,196.01L220.739336492891,194.87L224.6255924170616,194.69L228.64139020537124,189.92000000000002L232.5276461295419,190.34999999999997L236.5434439178515,189.03L240.55924170616112,198.04999999999998L244.44549763033177,187.90999999999997L248.46129541864138,177.98000000000002L252.35294892048447,186.81L256.3687467087941,177.51999999999998L260.3845444971037,163.25L264.0117166929963,166.67L268.0221169036335,161.69L271.9083728278041,156L275.9241706161137,155.32L279.81042654028437,153.8L283.826224328594,151.15L287.8420221169036,159.55L291.72827804107425,141.94L295.7440758293839,139.85999999999999L299.63572933122697,150.89L303.6515271195366,140.04999999999998L307.66732490784625,126.56000000000003L311.2944971037388,114.76000000000002L315.304897314376,127.87999999999997L319.19115323854663,118.4L323.20695102685625,119.96999999999997L327.09320695102684,99.67999999999998L331.1090047393365,110.28L335.1248025276461,115.61999999999998L339.0110584518167,105.07L343.0268562401264,104.66L346.91850974196944,118.53L350.93430753027906,107.76999999999998L354.9501053185887,111.50999999999996L358.70681937862037,102.39999999999998L362.7172195892575,96.78L366.6034755134281,111.46000000000001L370.6192733017378,104.1L374.5055292259084,98.24999999999997L378.521327014218,105.21000000000001L382.53712480252767,118.9L386.42338072669827,98.24000000000001L390.4391785150079,107.4L394.330832016851,115.05000000000001L398.3466298051606,111.97999999999999L402.3624275934703,99.89999999999998L405.98959978936284,81.4L410,75.77999999999997" data-legend="r" style="stroke: rgb(44, 160, 44); fill: none;"></path></g></g><g transform="translate(20, 150)"><text transform="rotate(-90)" x="-50" y="0" dy="1em" class="axis-label y-axis-label" style="text-anchor: middle; font-weight: bold;">% of Stack Overflow questions that month</text></g><g class="legend" transform="translate(530, 30)" style="font-size: 12px;"><text class="legend-title" style="font-weight: bold;">Tag</text><g class="legend-items" transform="translate(0,20)"><text y="0em" x="1em">r</text><text y="1em" x="1em">django</text><text y="2em" x="1em">pandas</text><circle cy="-0.25em" cx="0" r="0.4em" style="fill: rgb(44, 160, 44);"></circle><circle cy="0.75em" cx="0" r="0.4em" style="fill: rgb(31, 119, 180);"></circle><circle cy="1.75em" cx="0" r="0.4em" style="fill: rgb(255, 127, 14);"></circle></g><rect class="legend-box"></rect></g></svg>
            